<?xml version="1.0" standalone="no"?>
<!DOCTYPE svg PUBLIC "-//W3C//DTD SVG 20010904//EN"
 "http://www.w3.org/TR/2001/REC-SVG-20010904/DTD/svg10.dtd">
<svg version="1.0" xmlns="http://www.w3.org/2000/svg"
 width="180.000000pt" height="180.000000pt" viewBox="0 0 180.000000 180.000000"
 preserveAspectRatio="xMidYMid meet">
<metadata>
Created by potrace 1.11, written by Peter Selinger 2001-2013
</metadata>
<g transform="translate(0.000000,180.000000) scale(0.100000,-0.100000)"
fill="#000000" stroke="none">
<path d="M463 1539 c-17 -5 -42 -24 -55 -41 -22 -32 -130 -208 -170 -278 -11
-19 -32 -53 -47 -75 -15 -22 -30 -47 -34 -55 -4 -8 -25 -44 -47 -79 -58 -91
-60 -117 -14 -199 21 -37 41 -68 46 -70 4 -2 8 -7 8 -12 0 -5 45 -81 99 -169
55 -89 98 -161 95 -161 -2 0 3 -8 12 -17 8 -10 25 -33 37 -52 45 -70 61 -75
225 -76 170 -1 189 1 202 25 7 14 -2 37 -41 101 -56 92 -72 119 -139 230 -24
41 -47 76 -50 79 -3 3 -14 21 -24 40 -11 19 -36 60 -55 90 -20 30 -34 60 -32
65 2 6 5 21 8 35 2 14 21 54 41 89 20 35 46 80 57 100 11 20 22 38 26 41 10
10 69 111 69 119 0 5 3 11 8 13 4 2 38 54 76 117 54 88 67 117 59 130 -9 13
-35 16 -169 18 -87 1 -173 -3 -191 -8z"/>
<path d="M981 1537 c-17 -21 -9 -37 158 -305 83 -133 151 -245 151 -248 0 -3
7 -12 16 -21 18 -19 17 -75 -3 -116 -8 -15 -81 -137 -162 -271 -186 -304 -173
-279 -157 -301 14 -19 66 -29 66 -13 0 7 4 7 13 1 6 -5 69 -9 138 -8 112 1
130 4 163 24 20 13 36 29 36 37 0 8 4 14 8 14 5 0 17 18 27 40 10 22 22 40 27
40 4 0 8 5 8 10 0 6 16 36 35 66 19 30 35 58 35 63 0 5 3 11 8 13 4 2 27 37
51 78 25 41 48 77 53 78 4 2 8 7 8 12 0 4 18 38 40 76 29 50 39 78 37 104 -1
19 -5 37 -8 40 -4 3 -17 25 -30 49 -13 24 -28 51 -34 60 -267 436 -278 453
-321 478 -33 18 -348 18 -363 0z"/>
</g>
</svg>
