<svg version="1" xmlns="http://www.w3.org/2000/svg" width="346.667" height="346.667" viewBox="0 0 260.000000 260.000000"><path d="M54.1 159.5c-1.7 3.6-5.6 10.7-8.7 15.7-15.7 25.4-29.8 63.6-26.4 71.7 1.5 3.7 2.6 4.1 12.5 4.8 13.5.9 15.3-.4 20.9-15.8 2.7-7.3 10.7-17.3 30.9-38.3 6.5-6.9 6.8-7 8.3-5.1 1.1 1.5 1.3 3.3.8 7.2-1.1 9.1-.9 17.6.5 22.7 1.9 6.6 8.1 13 14.1 14.6 6.5 1.8 20.5.8 25.5-1.8 4.5-2.3 16.9-14.8 20.4-20.5 1.2-2 2.6-3.7 3.1-3.7.4 0 1.3 1.3 2 2.9 1.6 4 5.7 7.6 11.3 10 6.2 2.7 12.2 2.7 16.7.1 10-5.8 9.3-5.7 15.7-2.3 8 4.3 10.9 4.7 19.9 2.8 8.6-1.8 11.2-3.5 21.1-13.8 6.5-6.7 8.6-11.2 6.2-12.8-2.5-1.6-3.4-1-8.9 6.2-8.2 10.5-22.3 19.1-26.8 16.2-2.5-1.5-3.8-7.8-2.4-11.4.7-1.6 1.7-4.2 2.4-5.9 1.6-3.8.3-7.6-3.6-10.4l-2.8-2.1-2.7 3.4c-8.3 10.7-11.2 13.9-16.4 18.4-3.1 2.8-6 4.7-6.3 4.4-3-3 14.9-25.3 26.9-33.6 2.6-1.8 4.7-4 4.7-5 0-4.8-12.4-11.1-21.8-11.1-8.1 0-14.9 5.7-27.6 23-2.7 3.6-5.8 8.5-7.1 11-1.3 2.7-4.7 6.5-8.1 9.3-3.3 2.6-8.6 7-11.9 9.7-6.9 5.8-16.6 11-20.5 11-5 0-6.4-2.9-5.7-12.2.2-4.6 1.5-12.1 2.7-16.8 2.6-10 2.4-18.1-.6-21-1.3-1.4-4-2.1-9.2-2.6l-7.3-.7L79 194.5c-11.8 11.8-17.3 16.6-18.4 16.2-2.3-.9-2.1-2.1 2.9-12.3 4.9-9.9 8.5-22.2 8.5-28.7 0-5.2-2.9-9.5-8.9-13.3-2.5-1.6-4.9-3-5.2-3.2-.4-.2-2.1 2.7-3.8 6.3z"/></svg>